<svg width="40" height="40" viewBox="0 0 40 40" xmlns="http://www.w3.org/2000/svg"><title>A3D9642A-E6D6-4655-93A3-ED06DC27607E</title><path d="M40 20c0 11.046-8.954 20-20 20S0 31.046 0 20 8.954 0 20 0s20 8.954 20 20zm-28.593 9.333c.408 0 .741-.396.741-.88V12.436c0-.484-.333-.88-.74-.88-.408 0-.741.396-.741.88v16.017c0 .484.333.88.74.88zm17.482.297c.407 0 .74-.397.74-.88V12.731c0-.484-.333-.88-.74-.88-.408 0-.74.396-.74.88V28.75c0 .484.332.88.74.88zm-13.333-7.408c.407 0 .74-.416.74-.926V14.26c0-.509-.333-.926-.74-.926-.408 0-.741.417-.741.926v7.037c0 .51.333.926.74.926zm8.888 0c.408 0 .741-.416.741-.926V14.26c0-.509-.333-.926-.74-.926-.408 0-.741.417-.741.926v7.037c0 .51.333.926.74.926zM20 25.185c.407 0 .74-.402.74-.894V15.71c0-.492-.333-.894-.74-.894s-.74.402-.74.894v8.582c0 .492.333.894.74.894z" fill="#FFF" fill-rule="evenodd"/></svg>